<svg xmlns="http://www.w3.org/2000/svg" xmlns:xlink="http://www.w3.org/1999/xlink" viewBox="0 0 693.18 230.78"><defs><filter id="luminosity-invert-noclip" x="37.32" y="12.33" width="231.86" height="123.13" filterUnits="userSpaceOnUse" color-interpolation-filters="sRGB"><feColorMatrix values="-1 0 0 0 1 0 -1 0 0 1 0 0 -1 0 1 0 0 0 1 0" result="invert"/><feFlood flood-color="#fff" result="bg"/><feBlend in="invert" in2="bg"/></filter><mask id="mask" x="37.32" y="0" width="231.86" height="123.13" maskUnits="userSpaceOnUse"><g style="filter:url(#luminosity-invert-noclip)"><g transform="translate(0 -12.33)"><polygon points="226.65 104.23 240.48 101.34 248.57 122.89 238.03 108.28 239.63 107.02 239.93 104.5 226.65 104.23" style="fill:#fff"/><polygon points="140.94 115.01 148.37 91.68 156.56 87.11 155.54 85.59 145.39 84.76 134.21 71.43 125.52 73.53 137.69 66.48 138.47 66.48 152.31 80.26 163.29 83.37 184.68 72.13 178.46 65.59 163.48 62.61 184.68 62.29 205.06 76.51 195.22 75.95 191.92 79.24 205.44 92.19 214.26 96.63 242.07 96.83 246.36 99.86 246.94 99.74 246.18 95.76 246.16 94.11 245.35 92.65 230.71 92.83 213.06 80.57 224.36 82.48 225.44 81.97 210.07 61.21 197.89 52.13 192.66 50.1 130.21 51.63 129.96 52.77 130.91 53.28 130.72 54.67 123.99 54.8 120.37 62.04 122.53 62.29 121.96 63.37 116.95 67.24 121.9 83.81 126.34 87.05 126.59 82.56 141.01 93.08 141.51 94.29 140.94 115.01" style="fill:#fff"/><polygon points="180.9 101.86 181.16 104.72 187.36 109.87 173.74 128.16 194.63 110.09 193.85 109.02 180.9 101.86" style="fill:#fff"/><polygon points="165.23 102.97 167.18 104.49 182.09 97.11 192.66 99.78 191.51 97.67 181.13 93.7 165.23 102.97" style="fill:#fff"/><polygon points="151.3 108.72 176.6 94.03 179.16 90.43 156.08 99.58 151.3 108.72" style="fill:#fff"/><polygon points="121.95 129.67 121.23 130.69 137.06 127.73 137.69 121.71 123.86 104.72 123.8 105.94 132.3 120.7 121.95 129.67" style="fill:#fff"/><polygon points="73.97 126.22 75.01 126.54 84.42 122.01 91.3 116.17 90.06 119.29 90.42 119.49 99.15 114.61 94.3 110.48 93.06 110.48 92.62 111.24 73.97 126.22" style="fill:#fff"/><polygon points="106.53 105.91 96.84 92.66 96.27 92.91 96.27 100.37 89.2 93.04 81.62 76.86 85.82 78.96 86.56 78.33 79.83 69.34 80.85 69.34 84.42 70.11 86.84 72.4 87.42 71.77 83.66 65.27 77.09 65.27 76.79 66.21 77.37 68.1 79.31 77.8 86.52 93.22 97.47 105.23 98.11 104.72 98.28 99.21 106.53 105.91" style="fill:#fff"/><polygon points="87.88 62.83 87.33 63.81 93.83 76.97 98.67 78.03 98.97 79.09 97.27 81.85 107.88 92.47 107.54 90.47 102.23 80.16 105.42 77.65 104.19 76.04 99.14 73.89 97.61 72.26 90.68 59.43 90.05 60.58 91.45 66.61 87.88 62.83" style="fill:#fff"/><polygon points="113.87 86.89 117.86 89.53 109.51 67.18 108.98 66.72 110.11 66.51 111.63 67.36 112.11 67.06 112.09 65.55 110.52 62.14 107.88 59.77 115.86 59.43 116.8 60.16 117.72 59.82 108 50.35 99.42 47.2 115.74 47.03 123.52 50.44 124.62 50.1 119.45 44.99 112.64 42.62 107.1 42.25 111.72 40.9 122.87 41.63 123.29 41.15 109.83 34.04 93.99 34.04 102.25 28.2 90.1 28.2 84.54 29.42 81.39 30.87 78.12 33.26 74.72 36.23 74.26 35.31 76.15 30.98 66.12 33.54 65.82 33.03 68.17 30.48 68.08 29.72 52.69 36.34 52.53 40.2 51.22 40 48.07 37.19 39.72 40.66 38.64 41.45 38.48 42.78 38.92 43.42 39.65 43.26 39.95 42.3 40.59 41.77 43.56 41.68 43.72 42.16 42.64 43.03 41.08 43.72 40.11 44.6 39.52 45.24 39.65 46.18 40.5 47.17 41.58 47.86 43.22 48.69 45.95 50.53 46.73 51.22 50.67 51.06 54.37 52.85 56.74 54.88 59.82 57.04 62.16 58.53 63.06 60.69 64.9 63.84 64.97 71.48 64.17 72.81 64.39 74.19 65.43 74.44 65.55 75.59 64.9 76.95 64.72 77.71 65.29 77.89 66.97 77.73 66.56 78.47 70.58 78.56 70.51 75.95 69.91 73.78 72.72 75.95 73.39 75.27 73.34 71.82 74.12 67.11 70.47 61.87 69.06 61.68 68.67 60.65 73.43 59.96 77.48 53.04 77.46 50.74 71.75 43.2 71.8 42.18 78.1 44.11 83.73 38.5 83 37.72 80.54 37.79 84.95 34.71 84.58 33.95 82.26 34.5 80.26 35.38 81.55 34 85.25 31.63 87.02 31.74 86.26 39.38 80.52 46.99 80.56 47.45 81.11 47.49 81.02 49.66 81.34 50.37 82.17 50.51 82.86 49.63 83.3 46.14 88.4 40.48 89.3 30 89.85 31.54 91.21 32.82 90.77 36.96 91.09 38.04 92.33 38.02 97.62 41.08 91.76 41.47 90.1 42.32 89.32 44.92 89.64 45.82 91.99 47.17 91.85 48.28 85.92 50.62 85.6 52.81 88.1 55.57 94.91 55.57 98.29 60.28 98.11 60.85 97.37 60.88 94.33 58.12 92.66 58.3 100.73 66.9 101.95 67.59 102.52 66.95 102.29 65.52 101.76 65.27 101.92 63.89 104.57 65.61 108.39 75.55 113.87 86.89" style="fill:#fff"/><polygon points="63.06 71.3 61.16 72.04 61.95 72.87 62.98 73.04 63.54 72.17 63.06 71.3" style="fill:#fff"/><polygon points="43.13 51.88 43.31 50.41 44.63 51.33 44.63 53.95 43.13 51.88" style="fill:#fff"/></g></g></mask></defs><g id="Layer_2" data-name="Layer 2"><g id="Layer_1-2" data-name="Layer 1"><path d="M317.12,83.54v30.92q0,10,2.2,12.45,3,3.45,9,3.44h4.07v2.9H286.9v-2.9h4c4.49,0,7.69-1.46,9.63-4.38q1.56-2.43,1.56-11.51V45.88q0-10-2.11-12.45Q296.92,30,290.9,30h-4v-2.9h38.91q14.25,0,22.47,2.93a30.94,30.94,0,0,1,13.86,9.91,25.43,25.43,0,0,1,5.64,16.52q0,13-8.57,21.14T335,85.73a67.35,67.35,0,0,1-8.29-.55C323.7,84.82,320.52,84.27,317.12,83.54Zm0-4.47q4.15.8,7.36,1.18a46.55,46.55,0,0,0,5.48.39A18.64,18.64,0,0,0,344,74.34Q349.93,68,349.93,58a29.35,29.35,0,0,0-2.82-12.8,19.39,19.39,0,0,0-8-8.84,23.31,23.31,0,0,0-11.74-2.94,46.54,46.54,0,0,0-10.26,1.49Z" transform="translate(0 -12.33)" style="fill:#fff"/><path d="M406.38,76.33H455.7V46q0-8.15-1-10.73a7,7,0,0,0-3.29-3.37A14.41,14.41,0,0,0,444.27,30h-3.76v-2.9h45.41V30h-3.76a14.88,14.88,0,0,0-7.12,1.8,6.58,6.58,0,0,0-3.41,3.79q-.9,2.55-.9,10.38v68.5q0,8.07,1,10.65a7,7,0,0,0,3.21,3.36,14.77,14.77,0,0,0,7.2,1.88h3.76v2.9H440.51v-2.9h3.76q6.5,0,9.47-3.83,2-2.51,2-12.06V82.13H406.38v32.33q0,8.07,1,10.65a7,7,0,0,0,3.29,3.36,14.35,14.35,0,0,0,7.13,1.88h3.83v2.9H376.16v-2.9h3.75q6.58,0,9.56-3.83,1.88-2.51,1.87-12.06V46c0-5.43-.33-9-1-10.73a7.16,7.16,0,0,0-3.21-3.37A14.88,14.88,0,0,0,379.91,30h-3.75v-2.9h45.48V30h-3.83a14.92,14.92,0,0,0-7.13,1.8,6.73,6.73,0,0,0-3.36,3.79q-.94,2.55-.94,10.38Z" transform="translate(0 -12.33)" style="fill:#fff"/><path d="M562.72,24.66V61.38h-2.89q-1.41-10.58-5.05-16.83A26.33,26.33,0,0,0,544.4,34.6a28.72,28.72,0,0,0-13.93-3.68,18.94,18.94,0,0,0-13.47,5q-5.32,5-5.32,11.31A13.43,13.43,0,0,0,515,56.06q4.86,5.86,23.1,15.65Q553,79.71,558.46,84A29.84,29.84,0,0,1,566.83,94a26.44,26.44,0,0,1,2.94,12.13q0,12.06-9.36,20.79t-24.07,8.73a50.88,50.88,0,0,1-8.69-.71,88.73,88.73,0,0,1-10.06-2.85q-7.64-2.48-9.67-2.47a4.08,4.08,0,0,0-3.09,1.17c-.76.79-1.32,2.4-1.69,4.86h-2.89V99.27h2.89q2,11.43,5.48,17.11a26.35,26.35,0,0,0,10.53,9.43,32.64,32.64,0,0,0,15.55,3.76q9.78,0,15.46-5.17a16,16,0,0,0,5.67-12.21,16.53,16.53,0,0,0-2.15-7.91A23.62,23.62,0,0,0,547,96.85q-3.06-2.35-16.68-10T510.93,74.69a33.08,33.08,0,0,1-8.73-10,24.91,24.91,0,0,1-3-12.06q0-11.43,8.77-19.69t22.31-8.26a44.71,44.71,0,0,1,17.93,4.15q4.38,2,6.18,2a4.66,4.66,0,0,0,3.33-1.22q1.29-1.2,2.08-4.89Z" transform="translate(0 -12.33)" style="fill:#fff"/><path d="M654.87,30v-2.9h37.58V30h-4a10.76,10.76,0,0,0-9.63,5.24q-1.65,2.43-1.65,11.27V89.56q0,16-3.17,24.78t-12.44,15.11q-9.29,6.3-25.25,6.31-17.39,0-26.39-6a32.67,32.67,0,0,1-12.76-16.21q-2.5-7-2.5-26.15V45.88q0-9.8-2.71-12.84c-1.8-2-4.71-3.05-8.72-3.05h-4v-2.9h45.88V30h-4.07q-6.57,0-9.4,4.14-1.95,2.82-1.95,11.75V92.15a102.94,102.94,0,0,0,1.13,14.17q1.14,8,4.11,12.45a22.41,22.41,0,0,0,8.58,7.36A29.64,29.64,0,0,0,637.26,129a37.85,37.85,0,0,0,18.63-4.54q8.22-4.53,11.23-11.62t3-24v-43q0-9.94-2.19-12.45Q664.89,30,658.86,30Z" transform="translate(0 -12.33)" style="fill:#fff"/><path d="M7.63,180.58v7.17c0,1.55.17,2.52.51,2.89a2.6,2.6,0,0,0,2.08.8h.95v.67H.62v-.67h.93a2.47,2.47,0,0,0,2.23-1,6,6,0,0,0,.36-2.67v-15.9c0-1.55-.16-2.51-.49-2.89a2.66,2.66,0,0,0-2.1-.79H.62v-.68h9a16.06,16.06,0,0,1,5.21.68,7.22,7.22,0,0,1,3.22,2.3,5.92,5.92,0,0,1,1.3,3.83,6.45,6.45,0,0,1-2,4.9,7.85,7.85,0,0,1-5.62,1.89A14.89,14.89,0,0,1,9.84,181C9.15,180.88,8.42,180.75,7.63,180.58Zm0-1q1,.18,1.71.27a10.75,10.75,0,0,0,1.27.09,4.32,4.32,0,0,0,3.25-1.46,5.28,5.28,0,0,0,1.38-3.78,6.73,6.73,0,0,0-.66-3,4.42,4.42,0,0,0-1.85-2A5.37,5.37,0,0,0,10,169a10.8,10.8,0,0,0-2.38.35Z" transform="translate(0 -12.33)" style="fill:#fff"/><path d="M34.28,166.93a11.18,11.18,0,0,1,8.31,3.64,12.59,12.59,0,0,1,3.51,9.09A12.94,12.94,0,0,1,42.56,189a11.42,11.42,0,0,1-8.57,3.7,11.33,11.33,0,0,1-8.54-3.61A12.94,12.94,0,0,1,22,179.71a12.47,12.47,0,0,1,4-9.57A11.79,11.79,0,0,1,34.28,166.93Zm-.35,1.33a6.48,6.48,0,0,0-5.3,2.45c-1.66,2-2.48,5-2.48,8.93s.86,7.11,2.57,9.28A6.39,6.39,0,0,0,34,191.38a7.16,7.16,0,0,0,5.73-2.7c1.51-1.8,2.26-4.65,2.26-8.53,0-4.21-.83-7.36-2.49-9.42A6.7,6.7,0,0,0,33.93,168.26Z" transform="translate(0 -12.33)" style="fill:#fff"/><path d="M47,167.49h6.68l15,18.47v-14.2c0-1.51-.17-2.46-.51-2.83a2.66,2.66,0,0,0-2.12-.76h-.85v-.68h8.57v.68H73a2.49,2.49,0,0,0-2.21.94,5.46,5.46,0,0,0-.4,2.65v20.75h-.65L53.49,172.69v15.15a5,5,0,0,0,.49,2.84,2.7,2.7,0,0,0,2.12.76H57v.67H48.4v-.67h.86a2.55,2.55,0,0,0,2.23-.94,5.51,5.51,0,0,0,.4-2.66V170.73a11.56,11.56,0,0,0-1.63-1.66,6.21,6.21,0,0,0-1.62-.74,5.76,5.76,0,0,0-1.6-.16Z" transform="translate(0 -12.33)" style="fill:#fff"/><path d="M96.77,166.93l.56,8.37h-.56a10.46,10.46,0,0,0-3.22-5.41,7.83,7.83,0,0,0-5-1.65A7.74,7.74,0,0,0,81,173.45a17.56,17.56,0,0,0-1.14,6.77A14.25,14.25,0,0,0,80.94,186a7.94,7.94,0,0,0,3.22,3.76,9.27,9.27,0,0,0,4.91,1.31,8.55,8.55,0,0,0,4.23-1,13.88,13.88,0,0,0,4-4.07l.56.36a12.88,12.88,0,0,1-4.32,4.81,10.91,10.91,0,0,1-5.86,1.52,11.11,11.11,0,0,1-9.48-4.53,13,13,0,0,1-2.5-8,14.16,14.16,0,0,1,1.65-6.77,12,12,0,0,1,4.54-4.78,12.36,12.36,0,0,1,6.33-1.7,11.63,11.63,0,0,1,5.27,1.31,3,3,0,0,0,1.09.4,1.2,1.2,0,0,0,.85-.35,2.81,2.81,0,0,0,.67-1.36Z" transform="translate(0 -12.33)" style="fill:#fff"/><path d="M107,168.84v9.73h5.41a4.35,4.35,0,0,0,2.81-.64,4.05,4.05,0,0,0,1.06-2.94h.67v8.57h-.67a9.39,9.39,0,0,0-.51-2.31,2.25,2.25,0,0,0-1.07-1,5.35,5.35,0,0,0-2.29-.37H107V188a7.34,7.34,0,0,0,.15,2,1.12,1.12,0,0,0,.5.56,3.12,3.12,0,0,0,1.38.21h4.18a11.47,11.47,0,0,0,3-.29,4.6,4.6,0,0,0,1.82-1.15,13.8,13.8,0,0,0,2.3-3.39H121l-2.12,6.17h-19v-.67h.88a3.43,3.43,0,0,0,1.65-.42,1.53,1.53,0,0,0,.79-.87,8.52,8.52,0,0,0,.21-2.38v-16c0-1.56-.16-2.53-.48-2.89a2.81,2.81,0,0,0-2.17-.72h-.88v-.68h19l.27,5.4h-.71a8.57,8.57,0,0,0-.84-2.67,2.85,2.85,0,0,0-1.38-1.11,8.24,8.24,0,0,0-2.56-.27Z" transform="translate(0 -12.33)" style="fill:#fff"/><path d="M138.83,178.91h11.44v-7a8.13,8.13,0,0,0-.24-2.49,1.62,1.62,0,0,0-.76-.78,3.33,3.33,0,0,0-1.65-.43h-.87v-.68h10.53v.68h-.88a3.42,3.42,0,0,0-1.65.41,1.55,1.55,0,0,0-.79.88,8.78,8.78,0,0,0-.21,2.41v15.88a8,8,0,0,0,.24,2.47,1.58,1.58,0,0,0,.74.78,3.47,3.47,0,0,0,1.67.44h.88v.67H146.75v-.67h.87a2.61,2.61,0,0,0,2.19-.89,5.26,5.26,0,0,0,.46-2.8v-7.49H138.83v7.49a8,8,0,0,0,.24,2.47,1.54,1.54,0,0,0,.76.78,3.34,3.34,0,0,0,1.65.44h.89v.67H131.82v-.67h.87a2.64,2.64,0,0,0,2.22-.89,5.57,5.57,0,0,0,.43-2.8V171.87a8.24,8.24,0,0,0-.23-2.49,1.64,1.64,0,0,0-.75-.78,3.41,3.41,0,0,0-1.67-.43h-.87v-.68h10.55v.68h-.89a3.42,3.42,0,0,0-1.65.41,1.57,1.57,0,0,0-.78.88,8.27,8.27,0,0,0-.22,2.41Z" transform="translate(0 -12.33)" style="fill:#fff"/><path d="M165.81,168.84v9.73h5.41a4.35,4.35,0,0,0,2.81-.64,4.09,4.09,0,0,0,1.06-2.94h.67v8.57h-.67a9.39,9.39,0,0,0-.51-2.31,2.3,2.3,0,0,0-1.07-1,5.35,5.35,0,0,0-2.29-.37h-5.41V188a8,8,0,0,0,.14,2,1.2,1.2,0,0,0,.51.56,3.06,3.06,0,0,0,1.38.21H172a11.47,11.47,0,0,0,3-.29,4.57,4.57,0,0,0,1.81-1.15,14.08,14.08,0,0,0,2.31-3.39h.73l-2.13,6.17h-19v-.67h.87a3.43,3.43,0,0,0,1.65-.42,1.5,1.5,0,0,0,.79-.87,8.52,8.52,0,0,0,.21-2.38v-16c0-1.56-.15-2.53-.47-2.89a2.82,2.82,0,0,0-2.18-.72h-.87v-.68h19l.27,5.4h-.7a8.52,8.52,0,0,0-.85-2.67,2.83,2.83,0,0,0-1.37-1.11,8.28,8.28,0,0,0-2.56-.27Z" transform="translate(0 -12.33)" style="fill:#fff"/><path d="M197.76,183.87h-9.53l-1.67,3.88a6.21,6.21,0,0,0-.62,2.15,1.26,1.26,0,0,0,.54,1,4.66,4.66,0,0,0,2.31.55v.67H181v-.67a4.21,4.21,0,0,0,2-.71,11.23,11.23,0,0,0,2.05-3.54l8.66-20.26h.63L203,187.41a9.31,9.31,0,0,0,1.88,3.2,3.83,3.83,0,0,0,2.35.83v.67h-9.71v-.67a3.66,3.66,0,0,0,2-.49,1.29,1.29,0,0,0,.52-1,7.67,7.67,0,0,0-.73-2.52Zm-.51-1.34-4.17-9.95-4.29,9.95Z" transform="translate(0 -12.33)" style="fill:#fff"/><path d="M228.91,185.3l.6.13-2.1,6.68H208.34v-.67h.93a2.47,2.47,0,0,0,2.23-1,5.74,5.74,0,0,0,.38-2.68V171.85a5.2,5.2,0,0,0-.5-2.89,2.69,2.69,0,0,0-2.11-.79h-.93v-.68h11.15v.68a6.58,6.58,0,0,0-2.75.36,2.15,2.15,0,0,0-1.08,1,8,8,0,0,0-.29,2.78v15.47a5.13,5.13,0,0,0,.29,2.07,1.33,1.33,0,0,0,.67.56,11.88,11.88,0,0,0,2.83.18H221a13,13,0,0,0,4-.42,5.11,5.11,0,0,0,2.08-1.48A11.93,11.93,0,0,0,228.91,185.3Z" transform="translate(0 -12.33)" style="fill:#fff"/><path d="M248.41,167.49l.27,5.78H248a6.85,6.85,0,0,0-.54-2.18,3.69,3.69,0,0,0-1.5-1.55,5.12,5.12,0,0,0-2.46-.5H240v18.8a5.13,5.13,0,0,0,.49,2.84,2.73,2.73,0,0,0,2.13.76h.85v.67H233.05v-.67h.87a2.54,2.54,0,0,0,2.22-.94,5.51,5.51,0,0,0,.4-2.66V169h-3a8.24,8.24,0,0,0-2.45.25,3.36,3.36,0,0,0-1.62,1.33,5.36,5.36,0,0,0-.8,2.65H228l.29-5.78Z" transform="translate(0 -12.33)" style="fill:#fff"/><path d="M257.25,178.91h11.44v-7a8.13,8.13,0,0,0-.24-2.49,1.62,1.62,0,0,0-.76-.78,3.33,3.33,0,0,0-1.65-.43h-.87v-.68H275.7v.68h-.87a3.46,3.46,0,0,0-1.66.41,1.58,1.58,0,0,0-.79.88,9.21,9.21,0,0,0-.21,2.41v15.88a8,8,0,0,0,.24,2.47,1.56,1.56,0,0,0,.75.78,3.45,3.45,0,0,0,1.67.44h.87v.67H265.17v-.67H266a2.63,2.63,0,0,0,2.2-.89,5.39,5.39,0,0,0,.45-2.8v-7.49H257.25v7.49a8,8,0,0,0,.24,2.47,1.54,1.54,0,0,0,.76.78,3.34,3.34,0,0,0,1.65.44h.89v.67H250.25v-.67h.87a2.64,2.64,0,0,0,2.21-.89,5.54,5.54,0,0,0,.44-2.8V171.87a8.13,8.13,0,0,0-.24-2.49,1.66,1.66,0,0,0-.74-.78,3.46,3.46,0,0,0-1.67-.43h-.87v-.68h10.54v.68h-.89a3.42,3.42,0,0,0-1.65.41,1.64,1.64,0,0,0-.78.88,8.65,8.65,0,0,0-.22,2.41Z" transform="translate(0 -12.33)" style="fill:#fff"/><path d="M302.8,166.93v8.52h-.67a10.71,10.71,0,0,0-1.17-3.91,6.07,6.07,0,0,0-2.41-2.3,6.62,6.62,0,0,0-3.23-.86,4.38,4.38,0,0,0-3.12,1.16,3.49,3.49,0,0,0-1.23,2.62,3.11,3.11,0,0,0,.78,2.05q1.13,1.36,5.35,3.63a37.51,37.51,0,0,1,4.71,2.84,7,7,0,0,1,1.95,2.34,6.16,6.16,0,0,1,.68,2.81,6.4,6.4,0,0,1-2.17,4.82,7.87,7.87,0,0,1-5.59,2,11.7,11.7,0,0,1-2-.16,20.24,20.24,0,0,1-2.33-.66,10.44,10.44,0,0,0-2.25-.57.93.93,0,0,0-.71.27,2.09,2.09,0,0,0-.39,1.12h-.68v-8.44H289a11.68,11.68,0,0,0,1.27,4,6,6,0,0,0,2.44,2.19,7.57,7.57,0,0,0,3.6.87,5.12,5.12,0,0,0,3.59-1.2,3.69,3.69,0,0,0,1.31-2.83,3.87,3.87,0,0,0-.49-1.84,5.65,5.65,0,0,0-1.56-1.72q-.7-.54-3.86-2.32a37.75,37.75,0,0,1-4.5-2.82,7.53,7.53,0,0,1-2-2.32,5.78,5.78,0,0,1-.69-2.8,6.06,6.06,0,0,1,2-4.56,7.25,7.25,0,0,1,5.18-1.92,10.38,10.38,0,0,1,4.15,1,4.18,4.18,0,0,0,1.44.46,1.12,1.12,0,0,0,.77-.28,2.26,2.26,0,0,0,.48-1.14Z" transform="translate(0 -12.33)" style="fill:#fff"/><path d="M328.82,166.93l.56,8.37h-.56a10.46,10.46,0,0,0-3.22-5.41,7.83,7.83,0,0,0-5-1.65,7.74,7.74,0,0,0-7.54,5.21,17.57,17.57,0,0,0-1.13,6.77A14.25,14.25,0,0,0,313,186a7.94,7.94,0,0,0,3.22,3.76,9.27,9.27,0,0,0,4.91,1.31,8.55,8.55,0,0,0,4.23-1,13.88,13.88,0,0,0,4-4.07l.56.36a12.88,12.88,0,0,1-4.32,4.81,10.88,10.88,0,0,1-5.86,1.52,11.11,11.11,0,0,1-9.48-4.53,13,13,0,0,1-2.5-8,14.16,14.16,0,0,1,1.65-6.77,11.92,11.92,0,0,1,4.55-4.78,12.27,12.27,0,0,1,6.32-1.7,11.63,11.63,0,0,1,5.27,1.31,3,3,0,0,0,1.09.4,1.2,1.2,0,0,0,.85-.35,2.72,2.72,0,0,0,.67-1.36Z" transform="translate(0 -12.33)" style="fill:#fff"/><path d="M342.71,191.44v.67H332.16v-.67H333a2.62,2.62,0,0,0,2.21-.89,5.54,5.54,0,0,0,.44-2.8v-15.9a8,8,0,0,0-.24-2.47,1.66,1.66,0,0,0-.74-.78,3.43,3.43,0,0,0-1.67-.43h-.87v-.68h10.55v.68h-.89a2.61,2.61,0,0,0-2.2.88,5.39,5.39,0,0,0-.45,2.8v15.9a8.12,8.12,0,0,0,.23,2.47,1.58,1.58,0,0,0,.76.78,3.38,3.38,0,0,0,1.66.44Z" transform="translate(0 -12.33)" style="fill:#fff"/><path d="M351.38,168.84v9.73h5.41a4.37,4.37,0,0,0,2.82-.64,4,4,0,0,0,1.05-2.94h.67v8.57h-.67a9.39,9.39,0,0,0-.51-2.31,2.25,2.25,0,0,0-1.07-1,5.32,5.32,0,0,0-2.29-.37h-5.41V188a7.34,7.34,0,0,0,.15,2,1.2,1.2,0,0,0,.51.56,3.06,3.06,0,0,0,1.38.21h4.17a11.47,11.47,0,0,0,3-.29,4.6,4.6,0,0,0,1.82-1.15,14.08,14.08,0,0,0,2.31-3.39h.72l-2.12,6.17h-19v-.67h.87a3.43,3.43,0,0,0,1.65-.42,1.5,1.5,0,0,0,.79-.87,8.52,8.52,0,0,0,.21-2.38v-16a5.36,5.36,0,0,0-.47-2.89,2.85,2.85,0,0,0-2.18-.72h-.87v-.68h19l.27,5.4h-.71a8.31,8.31,0,0,0-.84-2.67,2.87,2.87,0,0,0-1.37-1.11,8.33,8.33,0,0,0-2.56-.27Z" transform="translate(0 -12.33)" style="fill:#fff"/><path d="M365.83,167.49h6.68L387.57,186v-14.2c0-1.51-.17-2.46-.51-2.83a2.7,2.7,0,0,0-2.13-.76h-.85v-.68h8.57v.68h-.87a2.51,2.51,0,0,0-2.22.94,5.59,5.59,0,0,0-.4,2.65v20.75h-.65l-16.23-19.82v15.15a5,5,0,0,0,.49,2.84,2.72,2.72,0,0,0,2.12.76h.87v.67H367.2v-.67h.85a2.53,2.53,0,0,0,2.23-.94,5.51,5.51,0,0,0,.4-2.66V170.73a11.11,11.11,0,0,0-1.62-1.66,6.14,6.14,0,0,0-1.63-.74,5.76,5.76,0,0,0-1.6-.16Z" transform="translate(0 -12.33)" style="fill:#fff"/><path d="M415.56,166.93l.56,8.37h-.56a10.51,10.51,0,0,0-3.21-5.41,7.86,7.86,0,0,0-5-1.65,8.11,8.11,0,0,0-4.43,1.24,8.24,8.24,0,0,0-3.12,4,17.77,17.77,0,0,0-1.13,6.77,14.25,14.25,0,0,0,1.07,5.79,8,8,0,0,0,3.22,3.76,9.27,9.27,0,0,0,4.91,1.31,8.55,8.55,0,0,0,4.23-1,13.88,13.88,0,0,0,4-4.07l.56.36a12.88,12.88,0,0,1-4.32,4.81,10.88,10.88,0,0,1-5.86,1.52,11.11,11.11,0,0,1-9.48-4.53,13,13,0,0,1-2.5-8,14.16,14.16,0,0,1,1.65-6.77,11.92,11.92,0,0,1,4.55-4.78,12.31,12.31,0,0,1,6.33-1.7,11.62,11.62,0,0,1,5.26,1.31,3,3,0,0,0,1.09.4,1.19,1.19,0,0,0,.85-.35,2.72,2.72,0,0,0,.67-1.36Z" transform="translate(0 -12.33)" style="fill:#fff"/><path d="M425.74,168.84v9.73h5.41a4.37,4.37,0,0,0,2.82-.64,4,4,0,0,0,1-2.94h.67v8.57H435a9.39,9.39,0,0,0-.51-2.31,2.21,2.21,0,0,0-1.07-1,5.32,5.32,0,0,0-2.29-.37h-5.41V188a7.34,7.34,0,0,0,.15,2,1.2,1.2,0,0,0,.51.56,3.06,3.06,0,0,0,1.38.21H432a11.47,11.47,0,0,0,3-.29,4.6,4.6,0,0,0,1.82-1.15,14.08,14.08,0,0,0,2.31-3.39h.72l-2.12,6.17h-19v-.67h.87a3.43,3.43,0,0,0,1.65-.42,1.5,1.5,0,0,0,.79-.87,8.52,8.52,0,0,0,.21-2.38v-16a5.36,5.36,0,0,0-.47-2.89,2.85,2.85,0,0,0-2.18-.72h-.87v-.68h19l.27,5.4h-.71a8.31,8.31,0,0,0-.84-2.67,2.87,2.87,0,0,0-1.37-1.11,8.33,8.33,0,0,0-2.56-.27Z" transform="translate(0 -12.33)" style="fill:#fff"/><path d="M457.73,166.93v8.52h-.67a10.71,10.71,0,0,0-1.17-3.91,6.07,6.07,0,0,0-2.41-2.3,6.62,6.62,0,0,0-3.23-.86,4.38,4.38,0,0,0-3.12,1.16,3.5,3.5,0,0,0-1.24,2.62,3.12,3.12,0,0,0,.79,2.05q1.13,1.36,5.35,3.63a37.51,37.51,0,0,1,4.71,2.84,6.88,6.88,0,0,1,1.94,2.34,6,6,0,0,1,.69,2.81,6.4,6.4,0,0,1-2.17,4.82,7.87,7.87,0,0,1-5.59,2,11.7,11.7,0,0,1-2-.16,20.24,20.24,0,0,1-2.33-.66,10.44,10.44,0,0,0-2.25-.57.93.93,0,0,0-.71.27,2.09,2.09,0,0,0-.39,1.12h-.68v-8.44h.68a11.68,11.68,0,0,0,1.27,4,6,6,0,0,0,2.44,2.19,7.54,7.54,0,0,0,3.6.87,5.12,5.12,0,0,0,3.59-1.2,3.69,3.69,0,0,0,1.31-2.83,3.78,3.78,0,0,0-.5-1.84,5.48,5.48,0,0,0-1.55-1.72q-.7-.54-3.86-2.32a37.75,37.75,0,0,1-4.5-2.82,7.53,7.53,0,0,1-2-2.32,5.78,5.78,0,0,1-.69-2.8,6.06,6.06,0,0,1,2-4.56,7.25,7.25,0,0,1,5.18-1.92,10.38,10.38,0,0,1,4.15,1,4.18,4.18,0,0,0,1.44.46,1.12,1.12,0,0,0,.77-.28,2.26,2.26,0,0,0,.48-1.14Z" transform="translate(0 -12.33)" style="fill:#fff"/><path d="M488.4,168.17v-.68h8.71v.68h-.93a2.5,2.5,0,0,0-2.23,1.21,5.65,5.65,0,0,0-.38,2.62v10a17.65,17.65,0,0,1-.74,5.75,7.2,7.2,0,0,1-2.88,3.5,10.27,10.27,0,0,1-5.86,1.46,11,11,0,0,1-6.12-1.4,7.54,7.54,0,0,1-3-3.75,20.71,20.71,0,0,1-.59-6.07v-9.62a4.84,4.84,0,0,0-.62-3,2.59,2.59,0,0,0-2-.7h-.92v-.68H481.5v.68h-.95a2.46,2.46,0,0,0-2.18,1,5.38,5.38,0,0,0-.45,2.72v10.73a24.55,24.55,0,0,0,.26,3.29,7,7,0,0,0,1,2.88,5.22,5.22,0,0,0,2,1.71,6.87,6.87,0,0,0,3.19.67,8.8,8.8,0,0,0,4.32-1,5.65,5.65,0,0,0,2.61-2.7,15.72,15.72,0,0,0,.7-5.56v-10a5.08,5.08,0,0,0-.51-2.89,2.68,2.68,0,0,0-2.11-.79Z" transform="translate(0 -12.33)" style="fill:#fff"/><path d="M497,167.49h6.68L518.75,186v-14.2c0-1.51-.17-2.46-.51-2.83a2.68,2.68,0,0,0-2.12-.76h-.86v-.68h8.57v.68H523a2.48,2.48,0,0,0-2.21.94,5.46,5.46,0,0,0-.4,2.65v20.75h-.66l-16.23-19.82v15.15a5.13,5.13,0,0,0,.49,2.84,2.73,2.73,0,0,0,2.13.76H507v.67h-8.57v-.67h.85a2.55,2.55,0,0,0,2.24-.94,5.64,5.64,0,0,0,.4-2.66V170.73a11.56,11.56,0,0,0-1.63-1.66,6.21,6.21,0,0,0-1.62-.74,5.85,5.85,0,0,0-1.6-.16Z" transform="translate(0 -12.33)" style="fill:#fff"/><path d="M535.83,191.44v.67H525.29v-.67h.87a2.64,2.64,0,0,0,2.21-.89,5.54,5.54,0,0,0,.44-2.8v-15.9a8,8,0,0,0-.24-2.47,1.66,1.66,0,0,0-.74-.78,3.46,3.46,0,0,0-1.67-.43h-.87v-.68h10.54v.68h-.89a2.6,2.6,0,0,0-2.19.88,5.26,5.26,0,0,0-.46,2.8v15.9a8,8,0,0,0,.24,2.47,1.54,1.54,0,0,0,.76.78,3.34,3.34,0,0,0,1.65.44Z" transform="translate(0 -12.33)" style="fill:#fff"/><path d="M563.14,167.49v.68a4,4,0,0,0-2,.83,7.58,7.58,0,0,0-1.71,2.72l-8.59,20.95h-.67L541,171.45a11.39,11.39,0,0,0-1-2,3.31,3.31,0,0,0-1.11-.88,5.27,5.27,0,0,0-1.79-.4v-.68h10.06v.68a4.48,4.48,0,0,0-2.22.58,1.32,1.32,0,0,0-.51,1.07,8.17,8.17,0,0,0,.84,2.83l6.26,14.43,5.81-14.25a9.52,9.52,0,0,0,.85-2.92,1.38,1.38,0,0,0-.52-1,3.46,3.46,0,0,0-1.78-.68l-.31-.05v-.68Z" transform="translate(0 -12.33)" style="fill:#fff"/><path d="M571.36,168.84v9.73h5.41a4.41,4.41,0,0,0,2.82-.64,4.09,4.09,0,0,0,1-2.94h.67v8.57h-.67a9.39,9.39,0,0,0-.51-2.31,2.3,2.3,0,0,0-1.07-1,5.35,5.35,0,0,0-2.29-.37h-5.41V188a7.34,7.34,0,0,0,.15,2,1.12,1.12,0,0,0,.5.56,3.12,3.12,0,0,0,1.38.21h4.18a11.47,11.47,0,0,0,3-.29,4.6,4.6,0,0,0,1.82-1.15,13.8,13.8,0,0,0,2.3-3.39h.73l-2.12,6.17h-19v-.67h.87a3.44,3.44,0,0,0,1.66-.42,1.53,1.53,0,0,0,.79-.87,8.52,8.52,0,0,0,.21-2.38v-16c0-1.56-.16-2.53-.48-2.89a2.82,2.82,0,0,0-2.18-.72h-.87v-.68h19l.27,5.4h-.71a8.85,8.85,0,0,0-.84-2.67,2.85,2.85,0,0,0-1.38-1.11,8.24,8.24,0,0,0-2.56-.27Z" transform="translate(0 -12.33)" style="fill:#fff"/><path d="M611.43,192.11h-6.57l-8.34-11.51c-.61,0-1.12,0-1.5,0h-.51l-.57,0v7.15c0,1.55.17,2.52.51,2.89a2.6,2.6,0,0,0,2.07.8h1v.67H586.94v-.67h.92a2.49,2.49,0,0,0,2.24-1,5.77,5.77,0,0,0,.38-2.67v-15.9c0-1.55-.17-2.51-.51-2.89a2.67,2.67,0,0,0-2.11-.79h-.92v-.68h9a20.91,20.91,0,0,1,5.78.58,6.64,6.64,0,0,1,3.16,2.1,5.49,5.49,0,0,1,1.29,3.66,5.77,5.77,0,0,1-1.47,3.94,8.41,8.41,0,0,1-4.59,2.36l5.08,7.06a12.66,12.66,0,0,0,3,3.23,7.51,7.51,0,0,0,3.27,1Zm-17.49-12.65h1a8,8,0,0,0,5.31-1.53,4.89,4.89,0,0,0,1.79-3.88,5.07,5.07,0,0,0-1.44-3.75,5.16,5.16,0,0,0-3.82-1.45,16.14,16.14,0,0,0-2.86.35Z" transform="translate(0 -12.33)" style="fill:#fff"/><path d="M628.15,166.93v8.52h-.67a10.71,10.71,0,0,0-1.17-3.91,6.14,6.14,0,0,0-2.41-2.3,6.65,6.65,0,0,0-3.23-.86,4.38,4.38,0,0,0-3.12,1.16,3.47,3.47,0,0,0-1.24,2.62,3.11,3.11,0,0,0,.78,2.05q1.13,1.36,5.36,3.63a37.51,37.51,0,0,1,4.71,2.84A6.88,6.88,0,0,1,629.1,183a6,6,0,0,1,.68,2.81,6.37,6.37,0,0,1-2.17,4.82,7.83,7.83,0,0,1-5.58,2,11.61,11.61,0,0,1-2-.16,20.2,20.2,0,0,1-2.34-.66,10.41,10.41,0,0,0-2.24-.57,1,1,0,0,0-.72.27,2.28,2.28,0,0,0-.39,1.12h-.67v-8.44h.67a12.14,12.14,0,0,0,1.27,4,6.13,6.13,0,0,0,2.45,2.19,7.54,7.54,0,0,0,3.6.87,5.1,5.1,0,0,0,3.58-1.2,3.7,3.7,0,0,0,1.32-2.83,3.89,3.89,0,0,0-.5-1.84,5.48,5.48,0,0,0-1.55-1.72q-.71-.54-3.87-2.32a38.28,38.28,0,0,1-4.49-2.82,7.53,7.53,0,0,1-2-2.32,5.78,5.78,0,0,1-.69-2.8,6,6,0,0,1,2-4.56,7.22,7.22,0,0,1,5.17-1.92,10.38,10.38,0,0,1,4.16,1,4.21,4.21,0,0,0,1.43.46,1.13,1.13,0,0,0,.78-.28,2.26,2.26,0,0,0,.48-1.14Z" transform="translate(0 -12.33)" style="fill:#fff"/><path d="M643.25,191.44v.67H632.71v-.67h.87a2.64,2.64,0,0,0,2.21-.89,5.54,5.54,0,0,0,.44-2.8v-15.9a8,8,0,0,0-.24-2.47,1.66,1.66,0,0,0-.74-.78,3.46,3.46,0,0,0-1.67-.43h-.87v-.68h10.54v.68h-.89a2.6,2.6,0,0,0-2.19.88,5.26,5.26,0,0,0-.46,2.8v15.9a8,8,0,0,0,.24,2.47,1.54,1.54,0,0,0,.76.78,3.34,3.34,0,0,0,1.65.44Z" transform="translate(0 -12.33)" style="fill:#fff"/><path d="M665.67,167.49l.28,5.78h-.69a7.08,7.08,0,0,0-.55-2.18,3.57,3.57,0,0,0-1.5-1.55,5.12,5.12,0,0,0-2.46-.5h-3.46v18.8a5,5,0,0,0,.49,2.84,2.7,2.7,0,0,0,2.12.76h.85v.67H650.31v-.67h.88a2.51,2.51,0,0,0,2.21-.94,5.51,5.51,0,0,0,.4-2.66V169h-3a8.24,8.24,0,0,0-2.45.25,3.36,3.36,0,0,0-1.62,1.33,5.36,5.36,0,0,0-.79,2.65h-.69l.29-5.78Z" transform="translate(0 -12.33)" style="fill:#fff"/><path d="M684.59,167.49h8.59v.68h-.47a3.58,3.58,0,0,0-1.38.41,5.45,5.45,0,0,0-1.66,1.2,17.22,17.22,0,0,0-1.83,2.54l-5.94,9.35v6.17a4.9,4.9,0,0,0,.51,2.84,2.8,2.8,0,0,0,2.18.76h.8v.67H674.93v-.67h.87a2.54,2.54,0,0,0,2.22-.94,5.51,5.51,0,0,0,.4-2.66V182l-6.75-10.31a22.16,22.16,0,0,0-1.63-2.27,6,6,0,0,0-1.77-1.09,2.42,2.42,0,0,0-1-.18v-.68h10.53v.68h-.55a3.14,3.14,0,0,0-1.57.4,1.27,1.27,0,0,0-.72,1.19,5.67,5.67,0,0,0,1.11,2.36l5.14,7.94,4.83-7.59a5.61,5.61,0,0,0,1.09-2.54,1.6,1.6,0,0,0-.27-.91,1.68,1.68,0,0,0-.75-.63,3.72,3.72,0,0,0-1.47-.22Z" transform="translate(0 -12.33)" style="fill:#fff"/><path d="M189.26,224.69l.15,3.33H189a4.15,4.15,0,0,0-.32-1.26,2.11,2.11,0,0,0-.86-.89,2.94,2.94,0,0,0-1.42-.29h-2v10.86a3,3,0,0,0,.28,1.64,1.6,1.6,0,0,0,1.23.44h.5v.39h-6v-.39h.51a1.43,1.43,0,0,0,1.28-.55,3.21,3.21,0,0,0,.23-1.53V225.58h-1.71a5.12,5.12,0,0,0-1.42.14,2,2,0,0,0-.93.77,3.11,3.11,0,0,0-.46,1.53h-.4l.17-3.33Z" transform="translate(0 -12.33)" style="fill:#fff"/><path d="M194.56,237.52a16,16,0,0,1-1.85,1.32,2.78,2.78,0,0,1-1.21.27,2.15,2.15,0,0,1-1.64-.69,2.49,2.49,0,0,1-.64-1.79,2.31,2.31,0,0,1,.31-1.22,4.22,4.22,0,0,1,1.49-1.34,23.12,23.12,0,0,1,3.54-1.53v-.38a3.18,3.18,0,0,0-.45-2,1.65,1.65,0,0,0-1.33-.53,1.53,1.53,0,0,0-1.05.35,1.1,1.1,0,0,0-.4.82l0,.61a1,1,0,0,1-.24.74.85.85,0,0,1-.65.27.78.78,0,0,1-.63-.28,1,1,0,0,1-.25-.74,2.16,2.16,0,0,1,.93-1.66,4,4,0,0,1,2.58-.75,4.43,4.43,0,0,1,2.1.43,1.92,1.92,0,0,1,.91,1,5.63,5.63,0,0,1,.19,1.85v3.26a12.89,12.89,0,0,0,.06,1.68.69.69,0,0,0,.17.42.4.4,0,0,0,.28.1.54.54,0,0,0,.29-.07,6.41,6.41,0,0,0,.85-.77v.59c-.78,1-1.53,1.57-2.24,1.57a1,1,0,0,1-.82-.35A1.9,1.9,0,0,1,194.56,237.52Zm0-.68v-3.66c-1.05.42-1.73.72-2,.89a3.59,3.59,0,0,0-1.19,1,1.89,1.89,0,0,0-.35,1.1,1.79,1.79,0,0,0,.45,1.25,1.37,1.37,0,0,0,1,.5A3.77,3.77,0,0,0,194.56,236.84Z" transform="translate(0 -12.33)" style="fill:#fff"/><path d="M201.51,231.06q1.05-1,1.23-1.2a3.62,3.62,0,0,1,1-.62,2.82,2.82,0,0,1,1.08-.22,2.38,2.38,0,0,1,1.55.52,2.54,2.54,0,0,1,.87,1.52,7,7,0,0,1,1.83-1.65,3.28,3.28,0,0,1,1.53-.39,2.43,2.43,0,0,1,1.36.39,2.64,2.64,0,0,1,.94,1.28,6,6,0,0,1,.23,1.91v4.14a3.77,3.77,0,0,0,.13,1.23.88.88,0,0,0,.39.4,2.08,2.08,0,0,0,.92.16v.38h-4.74v-.38h.2a1.67,1.67,0,0,0,1-.24.92.92,0,0,0,.34-.54,6,6,0,0,0,0-1V232.6a3.44,3.44,0,0,0-.29-1.65,1.41,1.41,0,0,0-1.31-.67,2.52,2.52,0,0,0-1.11.27,5.91,5.91,0,0,0-1.36,1l0,.11,0,.45v4.59a3.72,3.72,0,0,0,.11,1.22.9.9,0,0,0,.41.41,2.51,2.51,0,0,0,1,.16v.38H204v-.38a2.17,2.17,0,0,0,1.1-.19.94.94,0,0,0,.41-.57,4.75,4.75,0,0,0,.06-1V232.6a3.09,3.09,0,0,0-.35-1.68,1.49,1.49,0,0,0-1.29-.68,2.23,2.23,0,0,0-1.12.31,4.21,4.21,0,0,0-1.34,1v5.15a3.5,3.5,0,0,0,.13,1.22.86.86,0,0,0,.39.43,2.54,2.54,0,0,0,1,.14v.38h-4.75v-.38a2.16,2.16,0,0,0,.92-.14.93.93,0,0,0,.4-.45,3.48,3.48,0,0,0,.14-1.2v-3.68a13.42,13.42,0,0,0-.1-2,.83.83,0,0,0-.23-.48.69.69,0,0,0-.43-.13,1.92,1.92,0,0,0-.7.16l-.16-.38,2.9-1.17h.45Z" transform="translate(0 -12.33)" style="fill:#fff"/><path d="M222.15,237.83a4.77,4.77,0,0,1-1.38,1,3.34,3.34,0,0,1-1.44.32,3.57,3.57,0,0,1-2.75-1.32,4.84,4.84,0,0,1-1.18-3.38,6.14,6.14,0,0,1,1.3-3.78,4,4,0,0,1,3.35-1.71,2.94,2.94,0,0,1,2.1.8V228a14.7,14.7,0,0,0-.08-2,1,1,0,0,0-.25-.52.64.64,0,0,0-.42-.13,2.2,2.2,0,0,0-.72.16l-.14-.36,2.87-1.18h.47V235.1a13.63,13.63,0,0,0,.08,2.06.88.88,0,0,0,.25.52.59.59,0,0,0,.4.15,2.31,2.31,0,0,0,.76-.18l.11.36-2.85,1.19h-.48Zm0-.74v-5a3.51,3.51,0,0,0-.38-1.3,2.1,2.1,0,0,0-.84-.88,2,2,0,0,0-1-.3,2.14,2.14,0,0,0-1.64.82,4.7,4.7,0,0,0-1,3.19,5,5,0,0,0,.93,3.25,2.64,2.64,0,0,0,2.05,1.13A2.56,2.56,0,0,0,222.15,237.09Z" transform="translate(0 -12.33)" style="fill:#fff"/><path d="M229.41,229v7.72a3.41,3.41,0,0,0,.14,1.2.87.87,0,0,0,.38.44,2.05,2.05,0,0,0,.94.15v.38H226.2v-.38a2.2,2.2,0,0,0,1-.14.9.9,0,0,0,.38-.45,3.25,3.25,0,0,0,.14-1.2V233a13.69,13.69,0,0,0-.09-2,.9.9,0,0,0-.23-.47.71.71,0,0,0-.43-.13,2,2,0,0,0-.72.16l-.14-.38L229,229Zm-.87-5a1.07,1.07,0,0,1,.75,1.82,1,1,0,0,1-.75.31,1,1,0,0,1-.75-.31,1,1,0,0,1-.32-.76,1.06,1.06,0,0,1,1.07-1.06Z" transform="translate(0 -12.33)" style="fill:#fff"/><path d="M240.49,229.3v5.82a13.39,13.39,0,0,0,.08,2,.88.88,0,0,0,.25.52.59.59,0,0,0,.4.15,1.89,1.89,0,0,0,.74-.18l.14.36-2.87,1.19h-.47v-2a9,9,0,0,1-1.89,1.68,2.88,2.88,0,0,1-1.37.35,2.19,2.19,0,0,1-1.4-.47,2.42,2.42,0,0,1-.83-1.2,7.38,7.38,0,0,1-.23-2.07v-4.29a2.29,2.29,0,0,0-.14-.95,1,1,0,0,0-.44-.4,2.4,2.4,0,0,0-1-.13v-.39h3.36v6.43a2.41,2.41,0,0,0,.47,1.76,1.63,1.63,0,0,0,1.13.42,2.31,2.31,0,0,0,1-.28,5.73,5.73,0,0,0,1.36-1.08V231.1a1.52,1.52,0,0,0-.3-1.1,1.86,1.86,0,0,0-1.24-.31v-.39Z" transform="translate(0 -12.33)" style="fill:#fff"/><path d="M247.87,238.91v-.39h.54a1.41,1.41,0,0,0,1.28-.58,3.34,3.34,0,0,0,.23-1.55V227.2a2.9,2.9,0,0,0-.3-1.67,1.55,1.55,0,0,0-1.21-.46h-.54v-.38h5.79a12.69,12.69,0,0,1,4.85.72,5.81,5.81,0,0,1,2.68,2.41,7.5,7.5,0,0,1,1,3.9,7.09,7.09,0,0,1-1.81,5q-2,2.23-6.16,2.23Zm4.06-1a11.07,11.07,0,0,0,2.24.29,5.29,5.29,0,0,0,4-1.71,7.49,7.49,0,0,0,0-9.28,5.42,5.42,0,0,0-4.12-1.7,8.56,8.56,0,0,0-2.15.31Z" transform="translate(0 -12.33)" style="fill:#fff"/><path d="M267,229v7.72a3.75,3.75,0,0,0,.13,1.2.94.94,0,0,0,.39.44,2.05,2.05,0,0,0,.94.15v.38h-4.67v-.38a2.2,2.2,0,0,0,.95-.14,1,1,0,0,0,.38-.45,3.48,3.48,0,0,0,.14-1.2V233a13.69,13.69,0,0,0-.09-2,.9.9,0,0,0-.23-.47.71.71,0,0,0-.43-.13,2,2,0,0,0-.72.16l-.14-.38,2.89-1.17Zm-.87-5a1.06,1.06,0,0,1,.75.31,1.06,1.06,0,1,1-1.5,1.51,1,1,0,0,1-.32-.76,1,1,0,0,1,.31-.75A1.07,1.07,0,0,1,266.13,224Z" transform="translate(0 -12.33)" style="fill:#fff"/><path d="M275.86,229v3.27h-.34a4.34,4.34,0,0,0-1-2.1,2.32,2.32,0,0,0-1.59-.56,1.76,1.76,0,0,0-1.19.39,1.14,1.14,0,0,0-.45.86,1.52,1.52,0,0,0,.34,1,3.55,3.55,0,0,0,1.32.91l1.53.75q2.13,1,2.13,2.73a2.6,2.6,0,0,1-1,2.12,3.48,3.48,0,0,1-2.22.8,8.09,8.09,0,0,1-2-.31,2.09,2.09,0,0,0-.56-.11.42.42,0,0,0-.38.27h-.35v-3.43h.35a4,4,0,0,0,1.12,2.22,2.73,2.73,0,0,0,1.86.74,1.69,1.69,0,0,0,1.18-.42,1.38,1.38,0,0,0,.45-1,1.61,1.61,0,0,0-.5-1.21,8.82,8.82,0,0,0-2-1.25,6.09,6.09,0,0,1-2-1.36,2.41,2.41,0,0,1-.47-1.51,2.68,2.68,0,0,1,.81-2A2.91,2.91,0,0,1,273,229a4.94,4.94,0,0,1,1.37.24,3.84,3.84,0,0,0,.71.16.43.43,0,0,0,.27-.08,1.29,1.29,0,0,0,.22-.32Z" transform="translate(0 -12.33)" style="fill:#fff"/><path d="M286.17,235.26a5.19,5.19,0,0,1-1.52,2.92,3.65,3.65,0,0,1-2.5,1,3.72,3.72,0,0,1-2.86-1.37,5.43,5.43,0,0,1-1.21-3.72,5.12,5.12,0,0,1,1.34-3.68,4.33,4.33,0,0,1,3.24-1.41,3.56,3.56,0,0,1,2.33.75,2.07,2.07,0,0,1,.91,1.55.87.87,0,0,1-.26.65,1,1,0,0,1-.72.24,1.12,1.12,0,0,1-.93-.39,1.6,1.6,0,0,1-.23-.84,1.39,1.39,0,0,0-.43-.95,1.5,1.5,0,0,0-1-.31,2.08,2.08,0,0,0-1.69.78,4.15,4.15,0,0,0-.85,2.71,5.54,5.54,0,0,0,.85,3,2.59,2.59,0,0,0,2.28,1.31,2.76,2.76,0,0,0,1.85-.7,4.7,4.7,0,0,0,1.12-1.75Z" transform="translate(0 -12.33)" style="fill:#fff"/><path d="M289.16,232.92a4.91,4.91,0,0,0,1,3.35,3.17,3.17,0,0,0,2.46,1.22,2.68,2.68,0,0,0,1.65-.52,3.85,3.85,0,0,0,1.16-1.78l.33.21a5,5,0,0,1-1.28,2.62,3.41,3.41,0,0,1-2.65,1.18,3.89,3.89,0,0,1-3-1.35,5.16,5.16,0,0,1-1.23-3.62,5.47,5.47,0,0,1,1.27-3.85,4.14,4.14,0,0,1,3.17-1.37,3.54,3.54,0,0,1,2.65,1.06,3.92,3.92,0,0,1,1,2.85Zm0-.61h4.45a4.28,4.28,0,0,0-.22-1.3,2.13,2.13,0,0,0-.78-.92,1.94,1.94,0,0,0-1.09-.34,2.18,2.18,0,0,0-1.56.68A3,3,0,0,0,289.16,232.31Z" transform="translate(0 -12.33)" style="fill:#fff"/><path d="M299.88,231.05c1.13-1.36,2.2-2,3.22-2a2.31,2.31,0,0,1,1.35.39,2.56,2.56,0,0,1,.9,1.3,5.7,5.7,0,0,1,.24,1.92v4.11a3.41,3.41,0,0,0,.14,1.23.87.87,0,0,0,.37.41,2.1,2.1,0,0,0,.95.15v.38H302.3v-.38h.2a1.57,1.57,0,0,0,.94-.21,1,1,0,0,0,.37-.6,5.87,5.87,0,0,0,0-1V232.8a3.94,3.94,0,0,0-.34-1.9,1.19,1.19,0,0,0-1.14-.59,3.43,3.43,0,0,0-2.49,1.36v5.07a3.43,3.43,0,0,0,.12,1.2,1,1,0,0,0,.4.45,2.58,2.58,0,0,0,1,.14v.38h-4.75v-.38h.21a1.15,1.15,0,0,0,1-.37,2.75,2.75,0,0,0,.26-1.42v-3.57a15.9,15.9,0,0,0-.08-2.11.87.87,0,0,0-.24-.51.66.66,0,0,0-.44-.14,1.92,1.92,0,0,0-.7.16l-.16-.38,2.9-1.17h.45Z" transform="translate(0 -12.33)" style="fill:#fff"/><path d="M314.6,237.83a4.61,4.61,0,0,1-1.37,1,3.38,3.38,0,0,1-1.45.32,3.56,3.56,0,0,1-2.74-1.32,4.84,4.84,0,0,1-1.18-3.38,6.08,6.08,0,0,1,1.3-3.78,4,4,0,0,1,3.35-1.71,2.9,2.9,0,0,1,2.09.8V228a15.47,15.47,0,0,0-.07-2,1,1,0,0,0-.25-.52.64.64,0,0,0-.42-.13,2.2,2.2,0,0,0-.72.16l-.14-.36,2.86-1.18h.48V235.1a16.05,16.05,0,0,0,.07,2.06.94.94,0,0,0,.26.52.59.59,0,0,0,.4.15,2.21,2.21,0,0,0,.75-.18l.12.36-2.85,1.19h-.49Zm0-.74v-5a3.32,3.32,0,0,0-.37-1.3,2.1,2.1,0,0,0-.84-.88,2,2,0,0,0-1-.3,2.17,2.17,0,0,0-1.65.82,4.75,4.75,0,0,0-1,3.19,5.05,5.05,0,0,0,.92,3.25,2.66,2.66,0,0,0,2.06,1.13A2.54,2.54,0,0,0,314.6,237.09Z" transform="translate(0 -12.33)" style="fill:#fff"/><path d="M327,229.3v5.82a15,15,0,0,0,.08,2,.88.88,0,0,0,.25.52.59.59,0,0,0,.4.15,1.89,1.89,0,0,0,.74-.18l.14.36-2.87,1.19h-.47v-2a9,9,0,0,1-1.89,1.68,2.88,2.88,0,0,1-1.37.35,2.19,2.19,0,0,1-1.4-.47,2.42,2.42,0,0,1-.83-1.2,7.38,7.38,0,0,1-.23-2.07v-4.29a2.29,2.29,0,0,0-.14-.95,1,1,0,0,0-.44-.4,2.4,2.4,0,0,0-1-.13v-.39h3.36v6.43a2.41,2.41,0,0,0,.47,1.76,1.63,1.63,0,0,0,1.13.42,2.31,2.31,0,0,0,1-.28,5.73,5.73,0,0,0,1.36-1.08V231.1a1.52,1.52,0,0,0-.3-1.1,1.86,1.86,0,0,0-1.24-.31v-.39Z" transform="translate(0 -12.33)" style="fill:#fff"/><path d="M332.15,231.06c.7-.7,1.11-1.1,1.24-1.2a3.36,3.36,0,0,1,1-.62,2.78,2.78,0,0,1,1.08-.22,2.4,2.4,0,0,1,1.55.52,2.64,2.64,0,0,1,.87,1.52,7.15,7.15,0,0,1,1.82-1.65,3.28,3.28,0,0,1,1.53-.39,2.41,2.41,0,0,1,1.36.39,2.58,2.58,0,0,1,.94,1.28,6,6,0,0,1,.23,1.91v4.14a3.69,3.69,0,0,0,.14,1.23.88.88,0,0,0,.39.4,2,2,0,0,0,.92.16v.38H340.5v-.38h.2a1.66,1.66,0,0,0,1-.24.93.93,0,0,0,.35-.54,6.53,6.53,0,0,0,0-1V232.6a3.46,3.46,0,0,0-.28-1.65,1.42,1.42,0,0,0-1.31-.67,2.56,2.56,0,0,0-1.12.27,6.13,6.13,0,0,0-1.36,1l0,.11,0,.45v4.59a4,4,0,0,0,.11,1.22.93.93,0,0,0,.42.41,2.46,2.46,0,0,0,1,.16v.38h-4.85v-.38a2.13,2.13,0,0,0,1.09-.19,1,1,0,0,0,.42-.57,6,6,0,0,0,.05-1V232.6a3,3,0,0,0-.35-1.68,1.46,1.46,0,0,0-1.29-.68,2.26,2.26,0,0,0-1.12.31,4.21,4.21,0,0,0-1.34,1v5.15a3.5,3.5,0,0,0,.13,1.22,1,1,0,0,0,.39.43,2.58,2.58,0,0,0,1,.14v.38H329v-.38a2.16,2.16,0,0,0,.92-.14.93.93,0,0,0,.4-.45,3.48,3.48,0,0,0,.14-1.2v-3.68a13.94,13.94,0,0,0-.09-2,.83.83,0,0,0-.24-.48.67.67,0,0,0-.43-.13,1.92,1.92,0,0,0-.7.16l-.16-.38,2.9-1.17h.45Z" transform="translate(0 -12.33)" style="fill:#fff"/><path d="M355.19,225.46v5.62h3.13a2.56,2.56,0,0,0,1.62-.36,2.39,2.39,0,0,0,.61-1.7h.39V234h-.39a6.08,6.08,0,0,0-.29-1.34,1.38,1.38,0,0,0-.62-.57,3.17,3.17,0,0,0-1.32-.21h-3.13v4.69a4.61,4.61,0,0,0,.08,1.14.68.68,0,0,0,.3.33,1.78,1.78,0,0,0,.8.12h2.41a6.58,6.58,0,0,0,1.75-.17,2.63,2.63,0,0,0,1.05-.66,8,8,0,0,0,1.33-2h.42l-1.23,3.57h-11v-.39h.51a2,2,0,0,0,1-.24.89.89,0,0,0,.46-.51,4.92,4.92,0,0,0,.12-1.37v-9.24a3,3,0,0,0-.28-1.67,1.61,1.61,0,0,0-1.25-.42h-.51v-.38h11l.16,3.11h-.41a4.91,4.91,0,0,0-.49-1.54,1.69,1.69,0,0,0-.79-.64,4.57,4.57,0,0,0-1.48-.16Z" transform="translate(0 -12.33)" style="fill:#fff"/><path d="M370.7,229v3.27h-.34a4.25,4.25,0,0,0-1-2.1,2.29,2.29,0,0,0-1.59-.56,1.75,1.75,0,0,0-1.18.39,1.14,1.14,0,0,0-.45.86,1.57,1.57,0,0,0,.33,1,3.7,3.7,0,0,0,1.33.91l1.53.75q2.13,1,2.13,2.73a2.58,2.58,0,0,1-1,2.12,3.45,3.45,0,0,1-2.21.8,8.09,8.09,0,0,1-2-.31,2.09,2.09,0,0,0-.56-.11.42.42,0,0,0-.38.27h-.35v-3.43h.35a4,4,0,0,0,1.12,2.22,2.73,2.73,0,0,0,1.86.74,1.69,1.69,0,0,0,1.18-.42,1.38,1.38,0,0,0,.45-1,1.65,1.65,0,0,0-.5-1.21,8.82,8.82,0,0,0-2-1.25,6.09,6.09,0,0,1-2-1.36,2.41,2.41,0,0,1-.47-1.51,2.68,2.68,0,0,1,.81-2,2.91,2.91,0,0,1,2.11-.79,5,5,0,0,1,1.37.24,3.84,3.84,0,0,0,.71.16.43.43,0,0,0,.27-.08,1.29,1.29,0,0,0,.22-.32Z" transform="translate(0 -12.33)" style="fill:#fff"/><path d="M375.64,226.14v3.16h2.25V230h-2.25v6.23a2.05,2.05,0,0,0,.27,1.26.85.85,0,0,0,.69.33,1.16,1.16,0,0,0,.67-.22,1.4,1.4,0,0,0,.5-.63h.41a3.29,3.29,0,0,1-1,1.54,2.22,2.22,0,0,1-1.38.52,2,2,0,0,1-.95-.26,1.7,1.7,0,0,1-.68-.77,4,4,0,0,1-.22-1.54V230h-1.52v-.34a4.29,4.29,0,0,0,1.18-.78,6.68,6.68,0,0,0,1.08-1.31,12.58,12.58,0,0,0,.67-1.46Z" transform="translate(0 -12.33)" style="fill:#fff"/><path d="M380.83,236.87a1.14,1.14,0,0,1,.83.34,1.12,1.12,0,0,1,.34.83,1.15,1.15,0,0,1-.34.82,1.13,1.13,0,0,1-.83.34,1.17,1.17,0,0,1,0-2.33Z" transform="translate(0 -12.33)" style="fill:#fff"/><path d="M398.35,239.06a8.32,8.32,0,0,0,2.31,2.72,5.68,5.68,0,0,0,2.83,1v.33a11.44,11.44,0,0,1-3.1-.58,13.45,13.45,0,0,1-3.12-1.47,14.68,14.68,0,0,1-2.54-2,9.71,9.71,0,0,1-2.39-1.29,7,7,0,0,1-2-2.5,8.11,8.11,0,0,1-.71-3.51,7.24,7.24,0,0,1,2.07-5.29,6.73,6.73,0,0,1,5-2.11,6.48,6.48,0,0,1,4.83,2.11,7.38,7.38,0,0,1,2,5.34,7.49,7.49,0,0,1-1.45,4.58A7.13,7.13,0,0,1,398.35,239.06Zm-1.76-13.89a3.85,3.85,0,0,0-3.08,1.36c-1,1.14-1.46,2.89-1.46,5.23a8.36,8.36,0,0,0,1.48,5.32,3.73,3.73,0,0,0,3.06,1.44,3.93,3.93,0,0,0,3.17-1.44,7.62,7.62,0,0,0,1.42-5,10.48,10.48,0,0,0-.78-4.29,4.34,4.34,0,0,0-1.59-2A4,4,0,0,0,396.59,225.17Z" transform="translate(0 -12.33)" style="fill:#fff"/><path d="M413.49,229.3v5.82a15,15,0,0,0,.08,2,.94.94,0,0,0,.25.52.61.61,0,0,0,.41.15,1.85,1.85,0,0,0,.73-.18l.15.36-2.88,1.19h-.47v-2a8.49,8.49,0,0,1-1.89,1.68,2.88,2.88,0,0,1-1.37.35,2.19,2.19,0,0,1-1.4-.47,2.34,2.34,0,0,1-.82-1.2,7,7,0,0,1-.23-2.07v-4.29a2.1,2.1,0,0,0-.15-.95,1,1,0,0,0-.44-.4,2.4,2.4,0,0,0-1-.13v-.39h3.37v6.43a2.41,2.41,0,0,0,.46,1.76,1.63,1.63,0,0,0,1.13.42,2.31,2.31,0,0,0,1-.28,5.54,5.54,0,0,0,1.36-1.08V231.1a1.52,1.52,0,0,0-.3-1.1,1.86,1.86,0,0,0-1.24-.31v-.39Z" transform="translate(0 -12.33)" style="fill:#fff"/><path d="M421.25,237.52a16,16,0,0,1-1.85,1.32,2.78,2.78,0,0,1-1.21.27,2.15,2.15,0,0,1-1.64-.69,2.49,2.49,0,0,1-.65-1.79,2.31,2.31,0,0,1,.32-1.22,4.22,4.22,0,0,1,1.49-1.34,23.12,23.12,0,0,1,3.54-1.53v-.38a3.18,3.18,0,0,0-.45-2,1.65,1.65,0,0,0-1.33-.53,1.53,1.53,0,0,0-1.05.35,1.06,1.06,0,0,0-.4.82l0,.61a1,1,0,0,1-.24.74.85.85,0,0,1-.65.27.78.78,0,0,1-.63-.28,1,1,0,0,1-.25-.74,2.17,2.17,0,0,1,.92-1.66,4,4,0,0,1,2.59-.75,4.43,4.43,0,0,1,2.1.43,1.92,1.92,0,0,1,.91,1,5.63,5.63,0,0,1,.19,1.85v3.26a12.89,12.89,0,0,0,.06,1.68.69.69,0,0,0,.17.42.4.4,0,0,0,.28.1.54.54,0,0,0,.29-.07,6.41,6.41,0,0,0,.85-.77v.59c-.78,1-1.53,1.57-2.25,1.57a1,1,0,0,1-.81-.35A1.9,1.9,0,0,1,421.25,237.52Zm0-.68v-3.66a21.71,21.71,0,0,0-2,.89,3.48,3.48,0,0,0-1.19,1,1.82,1.82,0,0,0-.35,1.1,1.79,1.79,0,0,0,.45,1.25,1.36,1.36,0,0,0,1,.5A3.79,3.79,0,0,0,421.25,236.84Z" transform="translate(0 -12.33)" style="fill:#fff"/><path d="M428.19,231.06c.7-.7,1.12-1.1,1.24-1.2a3.62,3.62,0,0,1,1-.62,2.78,2.78,0,0,1,1.08-.22,2.38,2.38,0,0,1,1.55.52,2.54,2.54,0,0,1,.87,1.52,7,7,0,0,1,1.83-1.65,3.22,3.22,0,0,1,1.53-.39,2.43,2.43,0,0,1,1.36.39,2.7,2.7,0,0,1,.94,1.28,6,6,0,0,1,.23,1.91v4.14A3.77,3.77,0,0,0,440,238a.88.88,0,0,0,.39.4,2.08,2.08,0,0,0,.92.16v.38h-4.74v-.38h.2a1.7,1.7,0,0,0,1-.24.92.92,0,0,0,.34-.54,6.53,6.53,0,0,0,0-1V232.6a3.46,3.46,0,0,0-.28-1.65,1.41,1.41,0,0,0-1.31-.67,2.59,2.59,0,0,0-1.12.27,6.12,6.12,0,0,0-1.35,1l0,.11,0,.45v4.59a3.72,3.72,0,0,0,.11,1.22.9.9,0,0,0,.41.41,2.51,2.51,0,0,0,1,.16v.38h-4.86v-.38a2.2,2.2,0,0,0,1.1-.19.94.94,0,0,0,.41-.57,4.75,4.75,0,0,0,.06-1V232.6a3.09,3.09,0,0,0-.35-1.68,1.49,1.49,0,0,0-1.29-.68,2.23,2.23,0,0,0-1.12.31,4.38,4.38,0,0,0-1.35,1v5.15a3.43,3.43,0,0,0,.14,1.22.89.89,0,0,0,.38.43,2.6,2.6,0,0,0,1.05.14v.38H425v-.38a2.16,2.16,0,0,0,.92-.14,1,1,0,0,0,.4-.45,3.56,3.56,0,0,0,.13-1.2v-3.68a13.94,13.94,0,0,0-.09-2,.9.9,0,0,0-.23-.48.71.71,0,0,0-.43-.13,1.88,1.88,0,0,0-.7.16l-.16-.38,2.89-1.17h.45Z" transform="translate(0 -12.33)" style="fill:#fff"/><path d="M448.84,237.83a4.77,4.77,0,0,1-1.38,1,3.38,3.38,0,0,1-1.45.32,3.57,3.57,0,0,1-2.74-1.32,4.84,4.84,0,0,1-1.18-3.38,6.08,6.08,0,0,1,1.3-3.78,4,4,0,0,1,3.35-1.71,2.94,2.94,0,0,1,2.1.8V228a14.7,14.7,0,0,0-.08-2,1,1,0,0,0-.25-.52.64.64,0,0,0-.42-.13,2.2,2.2,0,0,0-.72.16l-.14-.36,2.86-1.18h.48V235.1a16.05,16.05,0,0,0,.07,2.06.94.94,0,0,0,.26.52.59.59,0,0,0,.4.15,2.21,2.21,0,0,0,.75-.18l.12.36-2.85,1.19h-.48Zm0-.74v-5a3.51,3.51,0,0,0-.38-1.3,2.1,2.1,0,0,0-.84-.88,2,2,0,0,0-1-.3,2.14,2.14,0,0,0-1.64.82,4.7,4.7,0,0,0-1,3.19,5.05,5.05,0,0,0,.92,3.25,2.66,2.66,0,0,0,2.06,1.13A2.56,2.56,0,0,0,448.84,237.09Z" transform="translate(0 -12.33)" style="fill:#fff"/><path d="M456.1,229v7.72a3.75,3.75,0,0,0,.13,1.2.94.94,0,0,0,.39.44,2.05,2.05,0,0,0,.94.15v.38h-4.67v-.38a2.2,2.2,0,0,0,.95-.14.9.9,0,0,0,.38-.45,3.48,3.48,0,0,0,.14-1.2V233a13.69,13.69,0,0,0-.09-2,.9.9,0,0,0-.23-.47.71.71,0,0,0-.43-.13,2,2,0,0,0-.72.16l-.14-.38,2.89-1.17Zm-.87-5a1.07,1.07,0,0,1,.75,1.82,1,1,0,0,1-.75.31,1,1,0,0,1-.75-.31,1,1,0,0,1-.32-.76,1.06,1.06,0,0,1,1.07-1.06Z" transform="translate(0 -12.33)" style="fill:#fff"/><path d="M467.18,229.3v5.82a13.39,13.39,0,0,0,.08,2,.88.88,0,0,0,.25.52.59.59,0,0,0,.4.15,1.89,1.89,0,0,0,.74-.18l.14.36-2.87,1.19h-.47v-2a9,9,0,0,1-1.89,1.68,2.88,2.88,0,0,1-1.37.35,2.19,2.19,0,0,1-1.4-.47,2.42,2.42,0,0,1-.83-1.2,7.38,7.38,0,0,1-.23-2.07v-4.29a2.29,2.29,0,0,0-.14-.95,1,1,0,0,0-.44-.4,2.4,2.4,0,0,0-1-.13v-.39h3.36v6.43a2.41,2.41,0,0,0,.47,1.76,1.63,1.63,0,0,0,1.13.42,2.31,2.31,0,0,0,1-.28,5.73,5.73,0,0,0,1.36-1.08V231.1a1.52,1.52,0,0,0-.3-1.1,1.86,1.86,0,0,0-1.24-.31v-.39Z" transform="translate(0 -12.33)" style="fill:#fff"/><path d="M489.05,224.69v.38a2.32,2.32,0,0,0-1.14.49,4.2,4.2,0,0,0-1,1.57l-5,12.1h-.39L476.25,227a6.5,6.5,0,0,0-.58-1.15,1.77,1.77,0,0,0-.64-.51,3.19,3.19,0,0,0-1-.24v-.38h5.81v.38a2.68,2.68,0,0,0-1.27.34.76.76,0,0,0-.3.62,4.73,4.73,0,0,0,.48,1.63l3.62,8.34,3.36-8.23a5.5,5.5,0,0,0,.49-1.69.79.79,0,0,0-.3-.58,2,2,0,0,0-1-.4l-.18,0v-.38Z" transform="translate(0 -12.33)" style="fill:#fff"/><path d="M492,229v7.72a3.75,3.75,0,0,0,.13,1.2.94.94,0,0,0,.39.44,2,2,0,0,0,.94.15v.38H488.8v-.38a2.2,2.2,0,0,0,.95-.14.9.9,0,0,0,.38-.45,3.48,3.48,0,0,0,.14-1.2V233a13.69,13.69,0,0,0-.09-2,.9.9,0,0,0-.23-.47.71.71,0,0,0-.43-.13,2,2,0,0,0-.72.16l-.14-.38,2.89-1.17Zm-.87-5a1.06,1.06,0,0,1,.75.31,1.06,1.06,0,1,1-1.5,1.51,1,1,0,0,1-.32-.76,1,1,0,0,1,.31-.75A1.07,1.07,0,0,1,491.14,224Z" transform="translate(0 -12.33)" style="fill:#fff"/><path d="M494.17,229.3h4.52v.39h-.29a.84.84,0,0,0-.62.2.67.67,0,0,0-.22.53,2.14,2.14,0,0,0,.22.87L500,236.6l2.25-5.51a2.63,2.63,0,0,0,.24-.89.36.36,0,0,0-.08-.24.57.57,0,0,0-.3-.21,2.75,2.75,0,0,0-.72-.06v-.39h3.13v.39a1.36,1.36,0,0,0-.75.22,2.57,2.57,0,0,0-.66,1.05l-3.41,8.24h-.43l-3.43-8.11a3,3,0,0,0-.44-.81,1.83,1.83,0,0,0-.53-.41,2.25,2.25,0,0,0-.71-.18Z" transform="translate(0 -12.33)" style="fill:#fff"/><path d="M510.85,237.52a16.64,16.64,0,0,1-1.86,1.32,2.77,2.77,0,0,1-1.2.27,2.16,2.16,0,0,1-1.65-.69,2.49,2.49,0,0,1-.64-1.79,2.31,2.31,0,0,1,.31-1.22,4.27,4.27,0,0,1,1.5-1.34,23.12,23.12,0,0,1,3.54-1.53v-.38a3.11,3.11,0,0,0-.46-2,1.62,1.62,0,0,0-1.33-.53,1.49,1.49,0,0,0-1,.35,1.06,1.06,0,0,0-.4.82l0,.61a1,1,0,0,1-.25.74.82.82,0,0,1-.64.27.81.81,0,0,1-.64-.28,1.08,1.08,0,0,1-.24-.74,2.14,2.14,0,0,1,.92-1.66,4,4,0,0,1,2.59-.75,4.48,4.48,0,0,1,2.1.43,2,2,0,0,1,.91,1,5.63,5.63,0,0,1,.19,1.85v3.26a16.45,16.45,0,0,0,0,1.68.75.75,0,0,0,.17.42.42.42,0,0,0,.28.1.6.6,0,0,0,.3-.07,7.38,7.38,0,0,0,.84-.77v.59c-.78,1-1.53,1.57-2.24,1.57a1,1,0,0,1-.82-.35A1.9,1.9,0,0,1,510.85,237.52Zm0-.68v-3.66a22.34,22.34,0,0,0-2.05.89,3.54,3.54,0,0,0-1.18,1,1.83,1.83,0,0,0-.36,1.1,1.79,1.79,0,0,0,.45,1.25,1.38,1.38,0,0,0,1,.5A3.82,3.82,0,0,0,510.85,236.84Z" transform="translate(0 -12.33)" style="fill:#fff"/><path d="M521.15,229v3.27h-.35a4.34,4.34,0,0,0-1-2.1,2.32,2.32,0,0,0-1.59-.56A1.76,1.76,0,0,0,517,230a1.14,1.14,0,0,0-.45.86,1.58,1.58,0,0,0,.34,1,3.73,3.73,0,0,0,1.32.91l1.53.75q2.13,1,2.13,2.73a2.6,2.6,0,0,1-1,2.12,3.46,3.46,0,0,1-2.22.8,8,8,0,0,1-2-.31,2.08,2.08,0,0,0-.57-.11.42.42,0,0,0-.38.27h-.34v-3.43h.34a3.92,3.92,0,0,0,1.13,2.22,2.72,2.72,0,0,0,1.85.74,1.67,1.67,0,0,0,1.18-.42,1.35,1.35,0,0,0,.46-1,1.62,1.62,0,0,0-.51-1.21,8.82,8.82,0,0,0-2-1.25,6,6,0,0,1-2-1.36,2.35,2.35,0,0,1-.47-1.51,2.68,2.68,0,0,1,.81-2,2.87,2.87,0,0,1,2.1-.79,4.88,4.88,0,0,1,1.37.24,3.72,3.72,0,0,0,.72.16.4.4,0,0,0,.26-.08,1.06,1.06,0,0,0,.22-.32Z" transform="translate(0 -12.33)" style="fill:#fff"/><rect y="190.43" width="691.1" height="9.44" style="fill:#fff"/><rect y="133.95" width="691.1" height="9.44" style="fill:#fff"/><g style="mask:url(#mask)"><polygon points="240.82 113.35 232.91 120.08 234.96 123.13 253.56 123.13 264.99 115.66 264.99 114.65 259.52 108.55 248.95 88.88 246.56 78.23 238.94 78.33 226.95 68.02 211.56 46.78 211.56 43.83 212.96 42.83 218.55 42.47 249.84 53.33 251.03 53.26 268.6 42.78 269.18 42.39 268.31 32.85 267.85 32.06 258.61 25.71 212.47 26.39 204.78 22.01 204.62 14.41 210.41 12.08 211.62 11.49 218.09 11.05 219.51 11.02 223.91 13.87 225.63 14.8 231.26 15.1 232.3 14.97 241.78 8.59 242.6 8.6 247.49 10.45 248.51 10.47 253.59 7.44 251.77 7.44 250.55 8.05 247.25 7.9 240.03 3.65 239.3 3.44 229.69 8.83 228.43 9 227.54 6.2 227.58 5.41 229.52 2.61 233.15 2.31 233.68 1.2 231.86 0.86 231.37 0.12 225.46 0 218.03 6.5 217.64 7.16 211.89 7.58 203.15 14.21 202.74 23.03 203.16 23.58 211.66 28.09 255.91 27.63 265.22 33.2 265.67 33.82 266.32 42.08 250.19 50.49 248.79 50.56 218.29 36.57 198.03 36.99 192.73 35.42 147.23 36.47 139.73 35.21 127.35 34.65 124.79 32.54 125.38 31.19 129.7 30.86 131.78 30.68 131.21 29.67 110.18 19.54 101.41 19.54 107.68 14.45 103.69 14.15 102.92 13.44 91.38 13.96 94.71 11.61 85.25 11.37 71.96 15.19 71.3 14.52 72.14 13.75 72 13.23 71.3 12.95 61.96 17.26 51.28 22.94 50.89 25.5 48.16 23.08 37.32 28.27 37.32 31.63 37.76 32.46 38.52 32.96 38.66 34.79 41.6 37.35 41.78 40.05 44.34 43.3 45.63 41.41 45.88 39.77 46.26 39.7 46.69 40.5 50.72 40.36 60.22 47.23 62.99 51.68 63.2 57.89 58.53 59.68 61.65 61.62 63.27 61.62 64.07 63.11 63.23 65.36 63.27 66.34 64.84 66.62 64.98 69.6 73.24 75.72 73.78 75.88 73.05 72.4 73.58 72.19 82.62 82.64 82.92 82.08 83.15 78.78 83.47 78.78 85.53 82.32 85.7 83.66 64.67 109.18 64.96 110.48 49.91 117.84 47.84 116.75 46.23 116.75 44.58 117.91 41.98 117.97 41.32 118.53 40.52 120.92 39.66 123.13 73.12 123.13 73.33 119.8 74.24 118.71 106.95 102.52 106.59 95.77 114.38 104.59 114.83 104.16 115 98.62 118.83 101.85 119.13 101.33 118.69 97.61 126.13 106.42 126.65 107.6 116.31 117.03 114.7 116.01 105.97 122.18 134.11 122.24 141.8 116.29 143.3 115.7 141.51 114.27 141.36 113.84 142.13 109.88 142.79 104.27 143.25 103.64 147.72 103.58 163.15 92.25 175.7 99.42 175.85 100.54 163.57 116.06 156.48 115.94 156.45 114.23 147.75 120.92 149.65 123.13 171.38 123.13 202.4 96.39 202.64 95.21 197.5 92.03 195.54 89.1 195.68 88.22 216.99 99.03 224.15 96.08 234.43 95.64 246.48 111.7 246.58 113 244.51 115.24 240.83 115.24 240.82 113.35" style="fill:#fff"/></g><polygon points="53.76 27.79 54.79 26.38 55.03 25.01 55.63 25.95 57.59 24.53 63.44 25.87 64.02 24.24 64.02 27.05 58.12 26.5 57.33 27 55.46 27.07 55.19 27.93 54.72 28.15 53.97 28.15 53.76 27.79" style="fill:#fff"/></g></g></svg>